<svg xmlns="http://www.w3.org/2000/svg" version="1.1" xmlns:xlink="http://www.w3.org/1999/xlink" xmlns:svgjs="http://svgjs.dev/svgjs" width="2000" height="580" viewBox="0 0 2000 580"><g transform="matrix(1,0,0,1,-1.2121212121212466,-0.1591661257361352)"><svg viewBox="0 0 396 115" data-background-color="#398378" preserveAspectRatio="xMidYMid meet" height="580" width="2000" xmlns="http://www.w3.org/2000/svg" xmlns:xlink="http://www.w3.org/1999/xlink"><g id="tight-bounds" transform="matrix(1,0,0,1,0.2400000000000091,0.031558800792510056)"><svg viewBox="0 0 395.52 114.93688239841497" height="114.93688239841497" width="395.52"><g><svg viewBox="0 0 579.4065612057705 168.37374541408187" height="114.93688239841497" width="395.52"><g transform="matrix(1,0,0,1,0,23.270177549992503)"><svg viewBox="0 0 395.52 121.83339031409686" height="121.83339031409686" width="395.52"><g id="textblocktransform"><svg viewBox="0 0 395.52 121.83339031409686" height="121.83339031409686" width="395.52" id="textblock"><g><svg viewBox="0 0 395.52 65.71110909913988" height="65.71110909913988" width="395.52"><g transform="matrix(1,0,0,1,0,0)"><svg width="395.52" viewBox="0 -35.84000015258789 215.7100067138672 35.84000015258789" height="65.71110909913988" data-palette-color="#31c48d"><path d="M31.64 0L27.34 0 22.9-11.35 8.59-11.35 4.2 0 0 0 14.11-35.84 17.6-35.84 31.64 0ZM10.06-15.09L21.61-15.09 17.46-26.15Q16.65-28.25 15.8-31.3L15.8-31.3Q15.26-28.96 14.26-26.15L14.26-26.15 10.06-15.09ZM47.43-20.19L62.33 0 57.44 0 44.43-17.31 40.7-13.99 40.7 0 36.55 0 36.55-35.69 40.7-35.69 40.7-17.99 56.88-35.69 61.79-35.69 47.43-20.19ZM95.72-18.19L95.72-18.19Q95.72-9.35 90.93-4.68 86.13 0 77.12 0L77.12 0 67.23 0 67.23-35.69 78.17-35.69Q86.49-35.69 91.11-31.08 95.72-26.46 95.72-18.19ZM91.33-18.04L91.33-18.04Q91.33-25.02 87.82-28.56 84.32-32.1 77.41-32.1L77.41-32.1 71.38-32.1 71.38-3.59 76.44-3.59Q83.86-3.59 87.59-7.24 91.33-10.89 91.33-18.04ZM123.58-3.71L123.58 0 103.68 0 103.68-35.69 123.58-35.69 123.58-32.01 107.83-32.01 107.83-20.51 122.62-20.51 122.62-16.85 107.83-16.85 107.83-3.71 123.58-3.71ZM150.62 0L147.28 0 135.17-31.64 134.98-31.64Q135.32-27.88 135.32-22.71L135.32-22.71 135.32 0 131.48 0 131.48-35.69 137.73-35.69 149.04-6.25 149.23-6.25 160.63-35.69 166.84-35.69 166.84 0 162.69 0 162.69-23Q162.69-26.95 163.03-31.59L163.03-31.59 162.83-31.59 150.62 0ZM180.77 0L176.62 0 176.62-35.69 180.77-35.69 180.77 0ZM202.16-14.84L194.71-14.84 194.71 0 190.56 0 190.56-35.69 200.35-35.69Q206.92-35.69 210.06-33.18 213.19-30.66 213.19-25.61L213.19-25.61Q213.19-18.53 206.02-16.04L206.02-16.04 215.71 0 210.8 0 202.16-14.84ZM194.71-32.06L194.71-18.41 200.4-18.41Q204.79-18.41 206.85-20.15 208.9-21.9 208.9-25.39L208.9-25.39Q208.9-28.93 206.81-30.49 204.72-32.06 200.11-32.06L200.11-32.06 194.71-32.06Z" opacity="1" transform="matrix(1,0,0,1,0,0)" fill="#31c48d" class="wordmark-text-0" data-fill-palette-color="primary" id="text-0"></path></svg></g></svg></g><g transform="matrix(1,0,0,1,201.2222045843722,81.22392489082841)"><svg viewBox="0 0 194.29779541562777 40.60946542326844" height="40.60946542326844" width="194.29779541562777"><g transform="matrix(1,0,0,1,0,0)"><svg width="194.29779541562777" viewBox="2.8600001335144043 -37.70000076293945 228.22000122070312 47.709999084472656" height="40.60946542326844" data-palette-color="#adbfb8"><path d="M30.86-35.01L30.86-13.99Q30.86-11.08 29.76-8.53 28.66-5.98 26.76-4.09 24.85-2.2 22.3-1.1 19.75 0 16.85 0L16.85 0Q13.94 0 11.39-1.1 8.84-2.2 6.95-4.09 5.05-5.98 3.96-8.53 2.86-11.08 2.86-13.99L2.86-13.99 2.86-35.01 9.84-35.01 9.84-13.99Q9.84-12.55 10.39-11.28 10.94-10.01 11.89-9.06 12.84-8.11 14.12-7.56 15.41-7.01 16.85-7.01L16.85-7.01Q18.29-7.01 19.57-7.56 20.85-8.11 21.8-9.06 22.75-10.01 23.3-11.28 23.85-12.55 23.85-13.99L23.85-13.99 23.85-35.01 30.86-35.01ZM42.4-14.94L42.4 0 35.74 0 35.74-26.15 37.35-26.15 39.55-23.61Q41.16-25.07 43.2-25.87 45.24-26.66 47.46-26.66L47.46-26.66Q49.85-26.66 51.98-25.74 54.1-24.83 55.69-23.23 57.27-21.63 58.19-19.49 59.1-17.36 59.1-14.94L59.1-14.94 59.1 0 52.44 0 52.44-14.94Q52.44-15.97 52.05-16.88 51.66-17.8 50.97-18.48 50.29-19.17 49.39-19.56 48.48-19.95 47.46-19.95L47.46-19.95Q46.41-19.95 45.48-19.56 44.55-19.17 43.87-18.48 43.19-17.8 42.8-16.88 42.4-15.97 42.4-14.94L42.4-14.94ZM71.7-33.25L71.7-33.25Q71.7-32.32 71.35-31.52 70.99-30.71 70.38-30.11 69.77-29.52 68.95-29.16 68.13-28.81 67.21-28.81L67.21-28.81Q66.28-28.81 65.46-29.16 64.64-29.52 64.05-30.11 63.45-30.71 63.09-31.52 62.74-32.32 62.74-33.25L62.74-33.25Q62.74-34.16 63.09-34.97 63.45-35.79 64.05-36.39 64.64-36.99 65.46-37.34 66.28-37.7 67.21-37.7L67.21-37.7Q68.13-37.7 68.95-37.34 69.77-36.99 70.38-36.39 70.99-35.79 71.35-34.97 71.7-34.16 71.7-33.25ZM70.55-26.15L70.55 0 63.84 0 63.84-26.15 70.55-26.15ZM89.74 0L83.05 0 73.09-26.15 80.68-26.15 86.39-9.84 92.08-26.15 99.7-26.15 89.74 0ZM124.38-21.46L111.88-6.4Q112.27-6.27 112.66-6.24 113.05-6.2 113.44-6.2L113.44-6.2Q114.42-6.2 115.32-6.47 116.23-6.74 117.02-7.24 117.81-7.74 118.43-8.46 119.06-9.18 119.45-10.06L119.45-10.06 124.33-5.15Q123.4-3.83 122.19-2.78 120.99-1.73 119.58-1 118.18-0.27 116.63 0.11 115.08 0.49 113.44 0.49L113.44 0.49Q110.68 0.49 108.25-0.54 105.82-1.56 104.01-3.39 102.19-5.22 101.14-7.75 100.09-10.28 100.09-13.31L100.09-13.31Q100.09-16.41 101.14-18.97 102.19-21.53 104.01-23.34 105.82-25.15 108.25-26.15 110.68-27.15 113.44-27.15L113.44-27.15Q115.08-27.15 116.64-26.76 118.2-26.37 119.61-25.63 121.01-24.9 122.23-23.84 123.45-22.78 124.38-21.46L124.38-21.46ZM107.53-9.84L115.3-20.14Q114.83-20.31 114.38-20.36 113.93-20.41 113.44-20.41L113.44-20.41Q112.07-20.41 110.87-19.91 109.66-19.41 108.77-18.48 107.88-17.55 107.36-16.25 106.85-14.94 106.85-13.31L106.85-13.31Q106.85-12.94 106.89-12.48 106.92-12.01 107.01-11.54 107.09-11.06 107.22-10.62 107.34-10.18 107.53-9.84L107.53-9.84ZM134.39-14.4L134.39 0 127.72 0 127.72-26.15 129.33-26.15 131.53-23.05Q133.14-24.51 135.19-25.31 137.24-26.1 139.44-26.1L139.44-26.1 145.32-26.1 145.32-19.46 139.44-19.46Q138.39-19.46 137.46-19.07 136.54-18.68 135.85-17.99 135.17-17.31 134.78-16.38 134.39-15.45 134.39-14.4L134.39-14.4ZM162.49 0L162.49 0 147.25 0 147.25-6.64 162.49-6.64Q163.17-6.64 163.66-7.13 164.15-7.62 164.15-8.3L164.15-8.3Q164.15-9.01 163.66-9.23 163.17-9.45 162.49-9.45L162.49-9.45 155.55-9.45Q153.82-9.45 152.3-10.11 150.79-10.77 149.67-11.9 148.54-13.04 147.9-14.55 147.25-16.06 147.25-17.8L147.25-17.8Q147.25-19.53 147.9-21.04 148.54-22.56 149.67-23.68 150.79-24.8 152.3-25.45 153.82-26.1 155.55-26.1L155.55-26.1 169.05-26.1 169.05-19.46 155.55-19.46Q154.87-19.46 154.38-18.97 153.89-18.48 153.89-17.8L153.89-17.8Q153.89-17.09 154.38-16.59 154.87-16.09 155.55-16.09L155.55-16.09 162.49-16.09Q164.19-16.09 165.71-15.52 167.22-14.94 168.34-13.92 169.47-12.89 170.13-11.45 170.79-10.01 170.79-8.3L170.79-8.3Q170.79-6.57 170.13-5.07 169.47-3.56 168.34-2.43 167.22-1.29 165.71-0.65 164.19 0 162.49 0ZM182.18-33.25L182.18-33.25Q182.18-32.32 181.83-31.52 181.48-30.71 180.87-30.11 180.26-29.52 179.44-29.16 178.62-28.81 177.69-28.81L177.69-28.81Q176.76-28.81 175.95-29.16 175.13-29.52 174.53-30.11 173.93-30.71 173.58-31.52 173.22-32.32 173.22-33.25L173.22-33.25Q173.22-34.16 173.58-34.97 173.93-35.79 174.53-36.39 175.13-36.99 175.95-37.34 176.76-37.7 177.69-37.7L177.69-37.7Q178.62-37.7 179.44-37.34 180.26-36.99 180.87-36.39 181.48-35.79 181.83-34.97 182.18-34.16 182.18-33.25ZM181.04-26.15L181.04 0 174.32 0 174.32-26.15 181.04-26.15ZM204.28 0L199.22 0Q196.81 0 194.68-0.92 192.56-1.83 190.96-3.43 189.36-5.03 188.44-7.15 187.53-9.28 187.53-11.69L187.53-11.69 187.53-19.46 184.28-19.46 184.28-26.1 187.53-26.1 187.53-36.55 194.17-36.55 194.17-26.1 204.28-26.1 204.28-19.46 194.17-19.46 194.17-11.69Q194.17-10.64 194.56-9.73 194.95-8.81 195.63-8.13 196.32-7.45 197.25-7.04 198.17-6.64 199.22-6.64L199.22-6.64 204.28-6.64 204.28 0ZM217.73 10.01L214.31 9.96 214.31 3.25 218.02 3.3Q219 3.3 219.9 2.98 220.8 2.66 221.57 2.1 222.34 1.54 222.93 0.77 223.51 0 223.88-0.9L223.88-0.9Q222.78-0.44 221.64 0.02 220.51 0.49 219.36 0.49L219.36 0.49Q216.95 0.49 214.82-0.37 212.7-1.22 211.1-2.8 209.5-4.37 208.58-6.63 207.67-8.89 207.67-11.69L207.67-11.69 207.67-26.15 214.31-26.15 214.31-11.69Q214.31-10.3 214.71-9.27 215.11-8.23 215.8-7.53 216.48-6.84 217.4-6.49 218.31-6.15 219.36-6.15L219.36-6.15Q220.39-6.15 221.3-6.63 222.22-7.1 222.9-7.89 223.59-8.67 223.98-9.66 224.37-10.64 224.37-11.69L224.37-11.69 224.37-26.15 231.08-26.15 231.08-3.3Q231.06-0.54 230.01 1.88 228.96 4.3 227.14 6.1 225.32 7.91 222.9 8.96 220.49 10.01 217.73 10.01L217.73 10.01Z" opacity="1" transform="matrix(1,0,0,1,0,0)" fill="#adbfb8" class="slogan-text-1" data-fill-palette-color="secondary" id="text-1"></path></svg></g></svg></g></svg></g></svg></g><g transform="matrix(1,0,0,1,411.0328157916885,0)"><svg viewBox="0 0 168.37374541408187 168.37374541408187" height="168.37374541408187" width="168.37374541408187"><g><svg xmlns="http://www.w3.org/2000/svg" xmlns:xlink="http://www.w3.org/1999/xlink" version="1.1" x="0" y="0" viewBox="0 0 100 100" enable-background="new 0 0 100 100" xml:space="preserve" height="168.37374541408187" width="168.37374541408187" class="icon-icon-0" data-fill-palette-color="accent" id="icon-0"><polygon points="95.84,33.255 50,10.469 4.16,33.255 0,24.883 49.935,0.059 49.955,0 50,0.026 50.045,0 50.065,0.059 100,24.883 " fill="#c9efc7" data-fill-palette-color="accent"></polygon><path d="M50.43 45.228c-3.001-2.865-20.215-12.826-43.763-2.683 0 0.163 0 2.969 0 7.266V98.21H42.35c1.218 1.041 4.128 1.79 7.533 1.79 3.418 0 6.321-0.749 7.552-1.79h35.898V49.811c0-4.297 0-7.103 0-7.266C70.749 32.598 52.708 43.125 50.43 45.228zM47.227 94.739c0-1.907-16.745-13.06-36.094-0.892V46.66c3.828-2.207 8.984-3.548 14.674-3.548 11.836 0 21.419 3.88 21.419 11.094V94.739zM89.134 93.848c-19.336-12.168-36.08-1.016-36.08 0.892V54.206c0-7.214 9.59-11.094 21.412-11.094 5.69 0 10.847 1.341 14.668 3.548V93.848z" fill="#c9efc7" data-fill-palette-color="accent"></path></svg></g></svg></g></svg></g><defs></defs></svg><rect width="395.52" height="114.93688239841497" fill="none" stroke="none" visibility="hidden"></rect></g></svg></g></svg>